<svg id="Layer_1" data-name="Layer 1" xmlns="http://www.w3.org/2000/svg" viewBox="0 0 525.83 525.83"><defs><style>.cls-1,.cls-17{fill:#231f20;}.cls-2{fill:#fff;stroke:#231f20;stroke-miterlimit:10;}.cls-3{fill:#f78e2e;}.cls-4{fill:#03bcdd;}.cls-11,.cls-5,.cls-9{fill:#4b4b4e;}.cls-6{fill:#e79539;}.cls-7,.cls-8{fill:none;stroke:#e79539;stroke-linecap:round;stroke-linejoin:round;}.cls-7{stroke-width:2px;}.cls-9{font-size:37.01px;font-family:Rockwell;}.cls-10{letter-spacing:-0.08em;}.cls-11{font-size:19.37px;font-family:Montserrat-Regular, Montserrat Regular;}.cls-12{letter-spacing:-0.02em;}.cls-13{font-size:24px;fill:#f7941d;}.cls-13,.cls-17{font-family:PalatinoLinotype-Bold, Palatino Linotype;font-weight:700;}.cls-14{letter-spacing:-0.1em;}.cls-15{letter-spacing:-0.07em;}.cls-16{letter-spacing:0em;}.cls-17{font-size:18px;}</style></defs><title>M.Sc</title><path class="cls-1" d="M257.56,232.2l-6.71,6.71c3-.76,6.06-1.45,9.13-2l6.24-6.24Q261.87,231.31,257.56,232.2ZM499.4,390.41,492,383q1.55,4.92,2.86,9.93l6.88,6.88C501,396.64,500.23,393.51,499.4,390.41ZM342.89,665.63l-6.62,6.62q4.58-.9,9.09-2l7.22-7.22Q347.78,664.45,342.89,665.63ZM149.25,293.79A225.89,225.89,0,0,0,97.69,384q-1.65,5.5-3,11.09c-.74,3-1.42,6.05-2,9.11-.07.35-.14.69-.2,1a242.57,242.57,0,0,0-2,82.47l4.38-5.07a234.36,234.36,0,0,1,2.73-77.4c.52-2.58,1.09-5.15,1.7-7.69q1.17-4.86,2.54-9.61c.38-1.32.77-2.63,1.18-3.94,20.92-68.26,72.46-121.84,137.18-142.08l3.36-6.3C208.19,245.61,175.79,265.44,149.25,293.79ZM297.64,671q-5.47,0-10.86-.31a191.49,191.49,0,0,1-29.88-4.05c-3.14-.67-6.25-1.43-9.33-2.26a192.25,192.25,0,0,1-24-8.19c-52.94-22-95.27-66.93-116.28-123.31l-3.38,5.45a225,225,0,0,0,45.31,72,209.29,209.29,0,0,0,64.34,47,197.29,197.29,0,0,0,40.87,13.92q4.39,1,8.83,1.75a195.78,195.78,0,0,0,26,2.79q4.14.18,8.31.18,9.25,0,18.39-.85l3.67-5.42A189.38,189.38,0,0,1,297.64,671ZM100.09,509.85l-5-5-1.84-1.84c.24,1.13.49,2.25.76,3.38q.67,3,1.46,5.92l7.33,7.33Q101.37,514.8,100.09,509.85ZM503.45,408.39l-3.9,7.06A234.78,234.78,0,0,1,496.82,503q-1.31,5.87-2.91,11.59c-1,3.42-2,6.82-3.1,10.17-.46,1.4-.94,2.79-1.43,4.17C468.81,587.44,425.47,634.1,371,656.51l-.56,5.73A208,208,0,0,0,446,610.37a225.32,225.32,0,0,0,49.14-82.56q1.79-5.29,3.31-10.7,1.35-4.74,2.49-9.56c.41-1.74.81-3.49,1.18-5.25a242.14,242.14,0,0,0,1.3-93.91Zm-1.31-6.57-.25.4.46.63C502.29,402.51,502.21,402.16,502.14,401.82ZM446,293.79c-23.72-25.34-52.13-43.87-83.13-54.65a196.39,196.39,0,0,0-20.74-6l-3.33-.74-.34-.07-.24-.05-2.37-.47c-.87-.18-1.74-.34-2.62-.5-1.31-.24-2.62-.46-3.94-.68q-2.62-.42-5.26-.77a200.4,200.4,0,0,0-50.24-.33l-4.66,5.69a193.13,193.13,0,0,1,52.89-.56q9,1.14,17.66,3.1,4.76,1.07,9.44,2.37l6.08,1.79c60.89,19.11,110.1,67.72,133.08,130.31l3.34-5.67A224.83,224.83,0,0,0,446,293.79Z" transform="translate(-36.46 -190.38)"/><path class="cls-1" d="M250.85,238.91,242.77,247l7.71-.63,9.5-9.5C256.91,237.46,253.87,238.15,250.85,238.91ZM113.37,523.13l-3.88-3.88-.84-.84-8.56-8.56q1.27,5,2.75,9.83l.9.9,2.42,2.42,4.5,4.5L237.73,654.56l6.34-.73ZM242.77,247l-137,137h7.07L250.48,246.36ZM113.37,523.13l-3.88-3.88-.84-.84-8.56-8.56q1.27,5,2.75,9.83l.9.9,2.42,2.42,4.5,4.5L237.73,654.56l6.34-.73Zm228.79-290-3.33-.74-.34-.07-.24-.05-2.37-.47c-.87-.18-1.74-.34-2.62-.5l1.73,1.73,4.72,4.72q4.76,1.07,9.44,2.37ZM493.91,514.61c-1,3.42-2,6.82-3.1,10.17l7.67-7.67q1.35-4.74,2.49-9.56Zm-380.54,8.52-3.88-3.88-.84-.84-8.56-8.56-5-5L43.54,453.3,91.6,405.24H84.53l-46.3,46.3-1.77,1.76,67.28,67.28,2.42,2.42,4.5,4.5L237.73,654.56l6.34-.73Zm363.8,8.22L373,635.49l-73.65,73.65-23.89-23.89-5.69,1.38,29.58,29.58,32.45-32.45,13.53-13.53,7.22-7.22,19.68-19.68L486,529.62ZM256.9,666.66c-3.14-.67-6.25-1.43-9.33-2.26l6.89,6.9q4.39,1,8.83,1.75ZM505.51,396.52,492,383l-1.54-1.54L357.51,248.52l-.05.2L348,246.06,488.34,386.42l14.42,14.42,52.46,52.46-48.35,48.35,8.19-1.12,47.23-47.23ZM301.14,192.15l-1.76-1.77L257.56,232.2l-6.71,6.71L242.77,247l-137,137h7.07L250.48,246.36l48.9-48.9L326,224.08,336,227ZM94.68,395.09c-.74,3-1.42,6.05-2,9.11l6.65-6.65q1.17-4.86,2.54-9.61Zm18.69,128-3.88-3.88-.84-.84-8.56-8.56q1.27,5,2.75,9.83l.9.9,2.42,2.42,4.5,4.5L237.73,654.56l6.34-.73Zm0,0-3.88-3.88-.84-.84-8.56-8.56q1.27,5,2.75,9.83l.9.9,2.42,2.42,4.5,4.5L237.73,654.56l6.34-.73Z" transform="translate(-36.46 -190.38)"/><polygon class="cls-1" points="237.01 32.99 214.02 55.98 206.31 56.61 214.39 48.53 221.1 41.82 231.24 31.68 237.01 32.99"/><path class="cls-1" d="M110.28,397.55" transform="translate(-36.46 -190.38)"/><path class="cls-1" d="M103,384c-.41,1.31-.8,2.62-1.18,3.94q-1.38,4.76-2.54,9.61c-.61,2.54-1.18,5.11-1.7,7.69h-6l1-1c.62-3.06,1.3-6.09,2-9.11q1.36-5.59,3-11.09Z" transform="translate(-36.46 -190.38)"/><path class="cls-1" d="M362.9,239.14,355.23,242l-6.08-1.79q-4.68-1.31-9.44-2.37-8.7-2-17.66-3.1l6.37-3.53.9-.5c1.32.22,2.63.44,3.94.68.88.16,1.75.32,2.62.5l2.37.47.24.05.34.07,3.33.74A196.39,196.39,0,0,1,362.9,239.14Z" transform="translate(-36.46 -190.38)"/><path class="cls-1" d="M338.49,232.36,338,234l-3-.88-6.57-1.91-4.36-1.27q2.64.35,5.26.77c1.32.22,2.63.44,3.94.68.88.16,1.75.32,2.62.5l2.37.47Z" transform="translate(-36.46 -190.38)"/><path class="cls-2" d="M497.34,371.58" transform="translate(-36.46 -190.38)"/><polygon points="469.05 206.14 466.3 210.46 451.88 196.04 453.96 191.05 455.5 192.59 469.05 206.14"/><path d="M485,380" transform="translate(-36.46 -190.38)"/><path d="M470.52,531.36" transform="translate(-36.46 -190.38)"/><path d="M502.15,502.3c-.37,1.76-.77,3.51-1.18,5.25q-1.14,4.81-2.49,9.56-1.53,5.4-3.31,10.7L489.38,529c.49-1.38,1-2.77,1.43-4.17,1.11-3.35,2.15-6.75,3.1-10.17q1.6-5.73,2.91-11.59Z" transform="translate(-36.46 -190.38)"/><polygon class="cls-1" points="336.57 445.11 335.8 452.95 316.12 472.63 308.9 479.85 295.37 493.38 288.3 493.38 336.57 445.11"/><path class="cls-1" d="M289.33,675.84a195.78,195.78,0,0,1-26-2.79q-4.44-.78-8.83-1.75a197.29,197.29,0,0,1-40.87-13.92l10-1.17a192.25,192.25,0,0,0,24,8.19c3.08.83,6.19,1.59,9.33,2.26a191.49,191.49,0,0,0,29.88,4.05Z" transform="translate(-36.46 -190.38)"/><polygon class="cls-1" points="72.19 328.03 71.55 329.22 71.54 329.22 69.7 332.62 67.28 330.2 50.5 313.42 53.14 308.98 58.67 314.51 63.63 319.47 72.19 328.03"/><polygon class="cls-1" points="58.67 314.51 57.59 316.05 55.74 318.66 50.37 313.29 48.22 304.06 58.67 314.51"/><polygon class="cls-1" points="76.91 332.75 74.2 337.12 69.7 332.62 67.28 330.2 71.54 329.22 71.55 329.22 73.03 328.87 76.91 332.75"/><line class="cls-3" x1="417.02" y1="275.96" x2="422.19" y2="284.91"/><line class="cls-4" x1="395.21" y1="312.03" x2="384.87" y2="312.03"/><path class="cls-5" d="M325.72,359.25A25.73,25.73,0,1,0,279.2,374.4c3.67,5.53,13.22,11.78,13.22,15.52v1.83h-.61V395L308,393.27l.14,0v-1.54h-.6v-1.83c0-3.74,9.54-10,13.21-15.52h0A25.63,25.63,0,0,0,325.72,359.25Zm-24.74-23a1.48,1.48,0,1,1-1.48,1.47A1.47,1.47,0,0,1,301,336.29Zm14.81,29.54c-.29,1.93-2,8.27-11.69,9.75-.51,5.89-.5,12.31-.43,16.17H302.4c-.07-3.85-.09-10.17.41-16a31.14,31.14,0,0,1-5.63,0c.5,5.83.49,12.15.41,16h-1.27a158.65,158.65,0,0,0-.43-16.17c-9.7-1.48-11.4-7.82-11.69-9.75-.38-2.54.52-5.08,2.13-6.05a4.28,4.28,0,0,1,3.46-.36,8.48,8.48,0,0,1,4.86,4.4c1.11,2.16,1.92,5.74,2.41,10.65a28.79,28.79,0,0,0,5.87,0c.49-4.91,1.3-8.49,2.41-10.65a8.46,8.46,0,0,1,4.87-4.4,4.26,4.26,0,0,1,3.45.36C315.28,360.75,316.17,363.29,315.79,365.83Zm4.17-6.58a19.94,19.94,0,0,0-15-19.36,1.48,1.48,0,1,1,.73-2.86,22.89,22.89,0,0,1,17.28,22.22,1.48,1.48,0,0,1-3,0Z" transform="translate(-36.46 -190.38)"/><path class="cls-5" d="M289.44,360.63a3.9,3.9,0,0,0-1-.15,2.74,2.74,0,0,0-1.42.38c-1.16.69-1.83,2.79-1.53,4.78.67,4.46,4.51,7.67,10.31,8.65-.47-4.61-1.22-7.94-2.23-9.9A7.23,7.23,0,0,0,289.44,360.63Z" transform="translate(-36.46 -190.38)"/><path class="cls-5" d="M313,360.86a2.81,2.81,0,0,0-1.43-.38,3.9,3.9,0,0,0-1,.15,7.23,7.23,0,0,0-4.09,3.76c-1,2-1.75,5.29-2.23,9.9,5.8-1,9.64-4.19,10.32-8.65C314.84,363.65,314.17,361.55,313,360.86Z" transform="translate(-36.46 -190.38)"/><path class="cls-5" d="M291.89,400.58a6.45,6.45,0,0,0,.43,1.5h0l15.52-1.61a.86.86,0,0,1,.28,0,7.57,7.57,0,0,0,.06-.95v-.66L292,400.58Z" transform="translate(-36.46 -190.38)"/><path class="cls-5" d="M291.81,397v1.52L308,396.85a.61.61,0,0,1,.14,0v-1.54L292,397Z" transform="translate(-36.46 -190.38)"/><path class="cls-5" d="M298.8,406.42h2.4a7,7,0,0,0,5.94-3.27,5.33,5.33,0,0,0,.31-.58L293.52,404A7,7,0,0,0,298.8,406.42Z" transform="translate(-36.46 -190.38)"/><path class="cls-6" d="M255.18,317.68a1.3,1.3,0,1,0-1.85,1.83L276,342.38a1.28,1.28,0,0,0,.92.39,1.31,1.31,0,0,0,.93-2.22Z" transform="translate(-36.46 -190.38)"/><path class="cls-6" d="M346.07,318.07a1.31,1.31,0,0,0-1.84,0l-22.36,22.17a1.3,1.3,0,1,0,1.83,1.85l22.36-22.17A1.3,1.3,0,0,0,346.07,318.07Z" transform="translate(-36.46 -190.38)"/><path class="cls-6" d="M282.28,317.55a1.32,1.32,0,0,0-1.7-.73,1.3,1.3,0,0,0-.72,1.7l6.23,15.63a1.32,1.32,0,0,0,1.21.82,1.37,1.37,0,0,0,.49-.09,1.3,1.3,0,0,0,.72-1.69Z" transform="translate(-36.46 -190.38)"/><path class="cls-6" d="M271.48,350.78l-17.17-7.38a1.31,1.31,0,0,0-1,2.4l17.17,7.38a1.37,1.37,0,0,0,.52.1,1.3,1.3,0,0,0,.51-2.5Z" transform="translate(-36.46 -190.38)"/><path class="cls-6" d="M346.92,345.32a1.32,1.32,0,0,0-1.7-.73l-16.54,6.61a1.3,1.3,0,0,0,.48,2.51,1.36,1.36,0,0,0,.48-.09L346.19,347A1.3,1.3,0,0,0,346.92,345.32Z" transform="translate(-36.46 -190.38)"/><path class="cls-6" d="M319.65,317.33a1.31,1.31,0,0,0-1.71.69l-6.49,15.11a1.31,1.31,0,0,0,.68,1.72,1.32,1.32,0,0,0,1.71-.69L320.33,319A1.3,1.3,0,0,0,319.65,317.33Z" transform="translate(-36.46 -190.38)"/><path class="cls-6" d="M300,298.66a1.31,1.31,0,0,0-1.31,1.31V330.9a1.31,1.31,0,1,0,2.61,0V300A1.31,1.31,0,0,0,300,298.66Z" transform="translate(-36.46 -190.38)"/><path class="cls-7" d="M272.89,450H215.2v.49a11.21,11.21,0,0,0,11.21,11.21h62" transform="translate(-36.46 -190.38)"/><path class="cls-5" d="M336.81,461.7h36.77a11.21,11.21,0,0,0,11.21-11.21V450H318.27v.11a1.49,1.49,0,0,1-1.33,1.61H314.6A136.59,136.59,0,0,0,336.81,461.7Zm20.88-8.7a.61.61,0,0,1,.62-.61h9.11a.61.61,0,0,1,.62.61v.15a.62.62,0,0,1-.62.62h-9.11a.62.62,0,0,1-.62-.62Z" transform="translate(-36.46 -190.38)"/><path class="cls-5" d="M342.24,366.11h19.17a3.91,3.91,0,0,1,1.87.48,3.42,3.42,0,0,1,1.82,3v64.88a3.58,3.58,0,0,1-3.69,3.45H293.73q5.37,4.14,10.88,7.75h66.17a5.57,5.57,0,0,0,.67-2.67v-77.1a5.76,5.76,0,0,0-5.76-5.75H330a30.48,30.48,0,0,1-.75,6h13Z" transform="translate(-36.46 -190.38)"/><path class="cls-7" d="M228.55,396.56V443a5.67,5.67,0,0,0,.66,2.67h38.68" transform="translate(-36.46 -190.38)"/><path class="cls-7" d="M259.74,437.9H238.58a3.79,3.79,0,0,1-2.74-1.15,3.3,3.3,0,0,1-1-2.3V407.23" transform="translate(-36.46 -190.38)"/><path class="cls-5" d="M238.47,366.12h32.25a29.75,29.75,0,0,1-.76-6H236.34Q237.3,363.12,238.47,366.12Z" transform="translate(-36.46 -190.38)"/><path class="cls-5" d="M353,421.34a31.73,31.73,0,0,0,4.06-.25,38,38,0,0,0,5.37-1.12l.32-.1V403.93a120.84,120.84,0,0,0-14.28,9.66c-2.56,2-5.09,4-7.65,6A48,48,0,0,0,353,421.34Z" transform="translate(-36.46 -190.38)"/><path class="cls-5" d="M362.74,426.22c-4.56,1-9.13,2.21-13.55,3.37-7,1.84-14.22,3.74-21.47,4.91-2.79.46-5.57.78-8.26,1v.07h42a1.23,1.23,0,0,0,1.33-1.09v-8.23Z" transform="translate(-36.46 -190.38)"/><path class="cls-5" d="M276.12,422.41a183.13,183.13,0,0,0,14.62,13.13H310A49,49,0,0,1,289.27,430c-12.09-6.59-19.93-18.69-28.89-29.14a80.16,80.16,0,0,0-8.66-8.73A179.71,179.71,0,0,0,276.12,422.41Z" transform="translate(-36.46 -190.38)"/><path class="cls-8" d="M237.26,410.78v23.66a1,1,0,0,0,.28.68,1.44,1.44,0,0,0,1,.42h18.85" transform="translate(-36.46 -190.38)"/><path class="cls-5" d="M361.41,435.54a1.23,1.23,0,0,0,1.33-1.09v-8.23c-11.71,2.6-23.17,6.36-35,8.28a89.06,89.06,0,0,1-9.41,1Z" transform="translate(-36.46 -190.38)"/><path class="cls-5" d="M357.2,422.26C336,424.92,315.51,406,295,411.8c-5.89,1.65-11.21,5.25-16.59,8.36a50.79,50.79,0,0,0,11.45,8.8,47.8,47.8,0,0,0,20.19,5.4,75,75,0,0,0,8.22,0,90.08,90.08,0,0,0,9.28-1c7.2-1.17,14.4-3.06,21.36-4.89,4.44-1.16,9-2.37,13.59-3.38l.26-.06V421.1A37.35,37.35,0,0,1,357.2,422.26Z" transform="translate(-36.46 -190.38)"/><path class="cls-6" d="M272.74,425.78c-42-42-57.47-95.63-37-123.91a41.39,41.39,0,0,0-5,4.22c-26.54,26.55-11.88,84.25,32.75,128.88s102.34,59.3,128.88,32.75a39.76,39.76,0,0,0,4.22-5C368.37,483.25,314.77,467.81,272.74,425.78Z" transform="translate(-36.46 -190.38)"/><text class="cls-9" transform="translate(88.49 329.73)">DE<tspan class="cls-10" x="50.12" y="0">P</tspan><tspan x="68.55" y="0" xml:space="preserve">ARTMENT  M.SC</tspan></text><text class="cls-11" transform="translate(181.52 357.74)"><tspan class="cls-12">C</tspan><tspan x="10.83" y="0">OMPUTER SCIENCE</tspan></text><line class="cls-8" x1="152.24" y1="351.49" x2="134.74" y2="351.49"/><line class="cls-8" x1="394.05" y1="351.49" x2="376.55" y2="351.49"/><text class="cls-13" transform="translate(179.58 409.19)">INNO<tspan class="cls-14" x="69.32" y="0">V</tspan><tspan class="cls-15" x="85.7" y="0">A</tspan><tspan class="cls-16" x="102.59" y="0">TION</tspan></text><text class="cls-17" transform="translate(199.22 432.06)"><tspan xml:space="preserve"> TEACH   YOU</tspan></text></svg>